<mxfile host="app.diagrams.net" modified="2024-06-07T08:28:41.657Z" agent="Mozilla/5.0 (Windows NT 10.0; Win64; x64) AppleWebKit/537.36 (KHTML, like Gecko) Chrome/125.0.0.0 Safari/537.36" etag="y2o59a9U_7CirrzNArXm" version="24.5.1" type="device">
  <diagram name="Page-1" id="ThGVcTv6Rneue8k59k8M">
    <mxGraphModel dx="1018" dy="515" grid="1" gridSize="10" guides="1" tooltips="1" connect="1" arrows="1" fold="1" page="1" pageScale="1" pageWidth="827" pageHeight="1169" math="0" shadow="0">
      <root>
        <mxCell id="0" />
        <mxCell id="1" parent="0" />
        <mxCell id="E5vrX9dujn3w_KabcVko-6" style="edgeStyle=orthogonalEdgeStyle;rounded=0;orthogonalLoop=1;jettySize=auto;html=1;exitX=1;exitY=0.5;exitDx=0;exitDy=0;entryX=0;entryY=0.5;entryDx=0;entryDy=0;" edge="1" parent="1" source="E5vrX9dujn3w_KabcVko-2" target="E5vrX9dujn3w_KabcVko-5">
          <mxGeometry relative="1" as="geometry" />
        </mxCell>
        <mxCell id="E5vrX9dujn3w_KabcVko-2" value="L4S AQM Scheduler" style="rounded=1;whiteSpace=wrap;html=1;" vertex="1" parent="1">
          <mxGeometry x="180" y="220" width="120" height="60" as="geometry" />
        </mxCell>
        <mxCell id="E5vrX9dujn3w_KabcVko-4" style="edgeStyle=orthogonalEdgeStyle;rounded=0;orthogonalLoop=1;jettySize=auto;html=1;" edge="1" parent="1" source="E5vrX9dujn3w_KabcVko-3" target="E5vrX9dujn3w_KabcVko-2">
          <mxGeometry relative="1" as="geometry" />
        </mxCell>
        <mxCell id="E5vrX9dujn3w_KabcVko-3" value="Network Environment" style="rounded=1;whiteSpace=wrap;html=1;" vertex="1" parent="1">
          <mxGeometry x="20" y="220" width="120" height="60" as="geometry" />
        </mxCell>
        <mxCell id="E5vrX9dujn3w_KabcVko-8" style="edgeStyle=orthogonalEdgeStyle;rounded=0;orthogonalLoop=1;jettySize=auto;html=1;" edge="1" parent="1" source="E5vrX9dujn3w_KabcVko-5" target="E5vrX9dujn3w_KabcVko-7">
          <mxGeometry relative="1" as="geometry" />
        </mxCell>
        <mxCell id="E5vrX9dujn3w_KabcVko-5" value="Initialize L4S Scheduler Instance" style="rounded=1;whiteSpace=wrap;html=1;" vertex="1" parent="1">
          <mxGeometry x="340" y="110" width="120" height="60" as="geometry" />
        </mxCell>
        <mxCell id="E5vrX9dujn3w_KabcVko-7" value="Get L4S Configuration" style="rounded=1;whiteSpace=wrap;html=1;" vertex="1" parent="1">
          <mxGeometry x="340" y="200" width="120" height="60" as="geometry" />
        </mxCell>
        <mxCell id="E5vrX9dujn3w_KabcVko-9" value="L4S Enqueue" style="rounded=1;whiteSpace=wrap;html=1;" vertex="1" parent="1">
          <mxGeometry x="330" y="280" width="120" height="60" as="geometry" />
        </mxCell>
        <mxCell id="E5vrX9dujn3w_KabcVko-10" value="IP-ECN Classify Flow" style="rounded=1;whiteSpace=wrap;html=1;" vertex="1" parent="1">
          <mxGeometry x="330" y="360" width="120" height="60" as="geometry" />
        </mxCell>
      </root>
    </mxGraphModel>
  </diagram>
</mxfile>
